HIERARCHY
ROOT newVegas:Hips
{
	OFFSET 0.000000 96.479958 0.000000
	CHANNELS 6 Xposition Yposition Zposition Xrotation Yrotation Zrotation
	JOINT newVegas:Pelvis
	{
		OFFSET 0.000000 0.000000 0.000000
		CHANNELS 3 Xrotation Yrotation Zrotation
		JOINT newVegas:LeftUpLeg
		{
			OFFSET 18.735201 -5.666702 -4.541200
			CHANNELS 3 Xrotation Yrotation Zrotation
			JOINT newVegas:LeftLeg
			{
				OFFSET -0.021200 -31.938179 0.493100
				CHANNELS 3 Xrotation Yrotation Zrotation
				JOINT newVegas:LeftFoot
				{
					OFFSET 0.021200 -31.938179 -4.336299
					CHANNELS 3 Xrotation Yrotation Zrotation
					JOINT newVegas:LeftToeBase
					{
						OFFSET 0.943001 -26.722000 15.023500
						CHANNELS 3 Xrotation Yrotation Zrotation
						End Site
						{
							OFFSET 0.000000 30.670183 0.000000
						}
					}
				}
				JOINT newVegas:Left_PantLeg
				{
					OFFSET 0.663870 -9.044666 -1.108900
					CHANNELS 3 Xrotation Yrotation Zrotation
					End Site
					{
						OFFSET 1.415995 20.635357 0.000000
					}
				}
			}
		}
		JOINT newVegas:RightUpLeg
		{
			OFFSET -18.735201 -5.666702 -4.541200
			CHANNELS 3 Xrotation Yrotation Zrotation
			JOINT newVegas:RightLeg
			{
				OFFSET 0.018946 -31.938133 0.493100
				CHANNELS 3 Xrotation Yrotation Zrotation
				JOINT newVegas:RightFoot
				{
					OFFSET -0.018946 -31.938126 -4.336299
					CHANNELS 3 Xrotation Yrotation Zrotation
					JOINT newVegas:RightToeBase
					{
						OFFSET -0.943001 -26.722004 15.023500
						CHANNELS 3 Xrotation Yrotation Zrotation
						End Site
						{
							OFFSET 0.000000 30.670187 0.000000
						}
					}
				}
				JOINT newVegas:Right_PantLeg
				{
					OFFSET -0.661674 -9.044716 -1.108900
					CHANNELS 3 Xrotation Yrotation Zrotation
					End Site
					{
						OFFSET -1.415958 20.635269 0.000000
					}
				}
			}
		}
	}
	JOINT newVegas:Spine
	{
		OFFSET 0.000000 10.199997 -0.299500
		CHANNELS 3 Xrotation Yrotation Zrotation
		JOINT newVegas:Spine1
		{
			OFFSET 0.000000 11.900002 -1.516600
			CHANNELS 3 Xrotation Yrotation Zrotation
			JOINT newVegas:Spine2
			{
				OFFSET 0.000000 13.600006 -2.842500
				CHANNELS 3 Xrotation Yrotation Zrotation
				JOINT newVegas:Neck
				{
					OFFSET 0.000000 9.624100 -2.890100
					CHANNELS 3 Xrotation Yrotation Zrotation
					JOINT newVegas:Head
					{
						OFFSET 0.000000 14.068802 -1.351900
						CHANNELS 3 Xrotation Yrotation Zrotation
						JOINT newVegas:Hair_Back
						{
							OFFSET 0.000000 3.231903 -17.524799
							CHANNELS 3 Xrotation Yrotation Zrotation
							End Site
							{
								OFFSET 0.000000 19.849884 0.000000
							}
						}
						JOINT newVegas:Hair_Front
						{
							OFFSET 0.000000 31.260406 4.573800
							CHANNELS 3 Xrotation Yrotation Zrotation
							JOINT newVegas:Hair_Front1
							{
								OFFSET 0.000000 2.284103 11.993300
								CHANNELS 3 Xrotation Yrotation Zrotation
								JOINT newVegas:Hair_Front2
								{
									OFFSET 0.000000 2.284103 11.993300
									CHANNELS 3 Xrotation Yrotation Zrotation
									End Site
									{
										OFFSET 0.000000 12.208862 0.000000
									}
								}
							}
						}
						JOINT newVegas:Jowel
						{
							OFFSET 0.000000 -7.458206 6.864100
							CHANNELS 3 Xrotation Yrotation Zrotation
							End Site
							{
								OFFSET 0.000000 19.849884 0.000000
							}
						}
					}
				}
				JOINT newVegas:LeftShoulder
				{
					OFFSET 15.263000 10.923401 -0.547700
					CHANNELS 3 Xrotation Yrotation Zrotation
					JOINT newVegas:LeftArm
					{
						OFFSET 25.438599 -2.830597 -13.032500
						CHANNELS 3 Xrotation Yrotation Zrotation
						JOINT newVegas:LeftForeArm
						{
							OFFSET 29.960503 0.000000 0.000000
							CHANNELS 3 Xrotation Yrotation Zrotation
							JOINT newVegas:LeftHand
							{
								OFFSET 27.849251 0.000000 0.000000
								CHANNELS 3 Xrotation Yrotation Zrotation
								JOINT newVegas:LeftHandThumb1
								{
									OFFSET 4.487587 -3.305161 6.305391
									CHANNELS 3 Xrotation Yrotation Zrotation
									JOINT newVegas:LeftHandThumb2
									{
										OFFSET 5.480453 -3.164139 3.164143
										CHANNELS 3 Xrotation Yrotation Zrotation
										JOINT newVegas:LeftHandThumb3
										{
											OFFSET 5.159721 -2.978973 2.978967
											CHANNELS 3 Xrotation Yrotation Zrotation
											End Site
											{
												OFFSET 2.494507 5.926697 1.738678
											}
										}
									}
								}
								JOINT newVegas:LeftHandIndex1
								{
									OFFSET 18.578728 -0.527832 5.208049
									CHANNELS 3 Xrotation Yrotation Zrotation
									JOINT newVegas:LeftHandIndex2
									{
										OFFSET 3.192009 0.000000 0.000000
										CHANNELS 3 Xrotation Yrotation Zrotation
										JOINT newVegas:LeftHandIndex3
										{
											OFFSET 3.835129 0.000000 0.000000
											CHANNELS 3 Xrotation Yrotation Zrotation
											End Site
											{
												OFFSET -0.034599 3.816971 0.371180
											}
										}
									}
								}
								JOINT newVegas:LeftHandMiddle1
								{
									OFFSET 18.476105 0.000000 0.000000
									CHANNELS 3 Xrotation Yrotation Zrotation
									JOINT newVegas:LeftHandMiddle2
									{
										OFFSET 3.324875 0.000000 0.000000
										CHANNELS 3 Xrotation Yrotation Zrotation
										JOINT newVegas:LeftHandMiddle3
										{
											OFFSET 4.596550 0.000000 0.000000
											CHANNELS 3 Xrotation Yrotation Zrotation
											End Site
											{
												OFFSET 0.057701 4.578827 0.399218
											}
										}
									}
								}
								JOINT newVegas:LeftHandRing1
								{
									OFFSET 17.732719 0.121887 -4.201567
									CHANNELS 3 Xrotation Yrotation Zrotation
									JOINT newVegas:LeftHandRing2
									{
										OFFSET 2.733170 0.000000 0.000000
										CHANNELS 3 Xrotation Yrotation Zrotation
										JOINT newVegas:LeftHandRing3
										{
											OFFSET 3.178268 0.000000 0.000000
											CHANNELS 3 Xrotation Yrotation Zrotation
											End Site
											{
												OFFSET 0.119102 3.170624 0.185394
											}
										}
									}
								}
								JOINT newVegas:LeftHandPinky1
								{
									OFFSET 15.989624 -0.606689 -7.535461
									CHANNELS 3 Xrotation Yrotation Zrotation
									JOINT newVegas:LeftHandPinky2
									{
										OFFSET 2.538986 0.000000 0.000000
										CHANNELS 3 Xrotation Yrotation Zrotation
										JOINT newVegas:LeftHandPinky3
										{
											OFFSET 2.593102 0.000000 0.000000
											CHANNELS 3 Xrotation Yrotation Zrotation
											End Site
											{
												OFFSET -0.150902 2.584198 0.152708
											}
										}
									}
								}
							}
							JOINT newVegas:Left_Sleeve
							{
								OFFSET 0.267448 -0.649796 0.577675
								CHANNELS 3 Xrotation Yrotation Zrotation
								End Site
								{
									OFFSET 0.000000 15.991241 0.000000
								}
							}
							JOINT newVegas:Left_CapeC
							{
								OFFSET 15.715958 -8.608795 -6.935905
								CHANNELS 3 Xrotation Yrotation Zrotation
								JOINT newVegas:Left_CapeC1
								{
									OFFSET 0.000000 -8.688499 0.000000
									CHANNELS 3 Xrotation Yrotation Zrotation
									End Site
									{
										OFFSET 0.000000 8.688499 0.000000
									}
								}
							}
						}
						JOINT newVegas:Left_CapeB
						{
							OFFSET 26.118385 -8.608795 -7.079235
							CHANNELS 3 Xrotation Yrotation Zrotation
							JOINT newVegas:Left_CapeB1
							{
								OFFSET 0.000000 -8.688499 0.000000
								CHANNELS 3 Xrotation Yrotation Zrotation
								End Site
								{
									OFFSET 0.000000 8.688499 0.000000
								}
							}
						}
						JOINT newVegas:Left_CapeA
						{
							OFFSET 5.115639 -8.608795 -10.395809
							CHANNELS 3 Xrotation Yrotation Zrotation
							JOINT newVegas:Left_CapeA1
							{
								OFFSET 0.000000 -8.688499 0.000000
								CHANNELS 3 Xrotation Yrotation Zrotation
								End Site
								{
									OFFSET 0.000000 8.688499 0.000000
								}
							}
						}
					}
				}
				JOINT newVegas:RightShoulder
				{
					OFFSET -15.263000 10.923401 -0.547700
					CHANNELS 3 Xrotation Yrotation Zrotation
					JOINT newVegas:RightArm
					{
						OFFSET -25.438599 -2.830597 -13.032500
						CHANNELS 3 Xrotation Yrotation Zrotation
						JOINT newVegas:RightForeArm
						{
							OFFSET -29.960503 0.000000 0.000000
							CHANNELS 3 Xrotation Yrotation Zrotation
							JOINT newVegas:RightHand
							{
								OFFSET -27.849251 0.000000 0.000000
								CHANNELS 3 Xrotation Yrotation Zrotation
								JOINT newVegas:RightHandThumb1
								{
									OFFSET -4.487587 -3.305161 6.305391
									CHANNELS 3 Xrotation Yrotation Zrotation
									JOINT newVegas:RightHandThumb2
									{
										OFFSET -5.480453 -3.164139 3.164143
										CHANNELS 3 Xrotation Yrotation Zrotation
										JOINT newVegas:RightHandThumb3
										{
											OFFSET -5.159721 -2.978973 2.978967
											CHANNELS 3 Xrotation Yrotation Zrotation
											End Site
											{
												OFFSET -2.494507 5.926697 1.738678
											}
										}
									}
								}
								JOINT newVegas:RightHandIndex1
								{
									OFFSET -18.578728 -0.527832 5.208049
									CHANNELS 3 Xrotation Yrotation Zrotation
									JOINT newVegas:RightHandIndex2
									{
										OFFSET -3.192009 0.000000 0.000000
										CHANNELS 3 Xrotation Yrotation Zrotation
										JOINT newVegas:RightHandIndex3
										{
											OFFSET -3.835129 0.000000 0.000000
											CHANNELS 3 Xrotation Yrotation Zrotation
											End Site
											{
												OFFSET 0.034599 3.816971 0.371180
											}
										}
									}
								}
								JOINT newVegas:RightHandMiddle1
								{
									OFFSET -18.476105 0.000000 0.000000
									CHANNELS 3 Xrotation Yrotation Zrotation
									JOINT newVegas:RightHandMiddle2
									{
										OFFSET -3.324875 0.000000 0.000000
										CHANNELS 3 Xrotation Yrotation Zrotation
										JOINT newVegas:RightHandMiddle3
										{
											OFFSET -4.596550 0.000000 0.000000
											CHANNELS 3 Xrotation Yrotation Zrotation
											End Site
											{
												OFFSET -0.057701 4.578827 0.399218
											}
										}
									}
								}
								JOINT newVegas:RightHandRing1
								{
									OFFSET -17.732719 0.121887 -4.201567
									CHANNELS 3 Xrotation Yrotation Zrotation
									JOINT newVegas:RightHandRing2
									{
										OFFSET -2.733170 0.000000 0.000000
										CHANNELS 3 Xrotation Yrotation Zrotation
										JOINT newVegas:RightHandRing3
										{
											OFFSET -3.178268 0.000000 0.000000
											CHANNELS 3 Xrotation Yrotation Zrotation
											End Site
											{
												OFFSET -0.119102 3.170624 0.185394
											}
										}
									}
								}
								JOINT newVegas:RightHandPinky1
								{
									OFFSET -15.989624 -0.606689 -7.535461
									CHANNELS 3 Xrotation Yrotation Zrotation
									JOINT newVegas:RightHandPinky2
									{
										OFFSET -2.538986 0.000000 0.000000
										CHANNELS 3 Xrotation Yrotation Zrotation
										JOINT newVegas:RightHandPinky3
										{
											OFFSET -2.593102 0.000000 0.000000
											CHANNELS 3 Xrotation Yrotation Zrotation
											End Site
											{
												OFFSET 0.150902 2.584198 0.152708
											}
										}
									}
								}
							}
							JOINT newVegas:Right_CapeC
							{
								OFFSET -15.715958 -8.608795 -6.935905
								CHANNELS 3 Xrotation Yrotation Zrotation
								JOINT newVegas:Right_CapeC1
								{
									OFFSET 0.000000 -8.688499 0.000000
									CHANNELS 3 Xrotation Yrotation Zrotation
									End Site
									{
										OFFSET 0.000000 8.688499 0.000000
									}
								}
							}
							JOINT newVegas:Right_Sleeve
							{
								OFFSET -0.267448 -0.649994 0.577675
								CHANNELS 3 Xrotation Yrotation Zrotation
								End Site
								{
									OFFSET 0.000000 15.991302 0.000000
								}
							}
						}
						JOINT newVegas:Right_CapeA
						{
							OFFSET -5.115540 -8.608795 -10.395824
							CHANNELS 3 Xrotation Yrotation Zrotation
							JOINT newVegas:Right_CapeA1
							{
								OFFSET 0.000000 -8.688499 0.000000
								CHANNELS 3 Xrotation Yrotation Zrotation
								End Site
								{
									OFFSET 0.000000 8.688499 0.000000
								}
							}
						}
						JOINT newVegas:Right_CapeB
						{
							OFFSET -26.118187 -8.608795 -7.079266
							CHANNELS 3 Xrotation Yrotation Zrotation
							JOINT newVegas:Right_CapeB1
							{
								OFFSET 0.000000 -8.688499 0.000000
								CHANNELS 3 Xrotation Yrotation Zrotation
								End Site
								{
									OFFSET 0.000000 8.688499 0.000000
								}
							}
						}
					}
				}
				JOINT newVegas:Left_Collar
				{
					OFFSET 18.625099 8.655502 8.828100
					CHANNELS 3 Xrotation Yrotation Zrotation
					JOINT newVegas:Left_Collar1
					{
						OFFSET 14.783401 10.540405 -1.259500
						CHANNELS 3 Xrotation Yrotation Zrotation
						End Site
						{
							OFFSET 0.000000 18.199875 0.000000
						}
					}
				}
				JOINT newVegas:Collar_Back
				{
					OFFSET 0.000000 15.630707 -20.132601
					CHANNELS 3 Xrotation Yrotation Zrotation
					End Site
					{
						OFFSET 0.000000 22.523010 0.000000
					}
				}
				JOINT newVegas:Left_Peck
				{
					OFFSET 17.239599 -5.132599 25.482599
					CHANNELS 3 Xrotation Yrotation Zrotation
					End Site
					{
						OFFSET 0.000000 22.523010 0.000000
					}
				}
				JOINT newVegas:Right_Peck
				{
					OFFSET -17.239599 -5.132202 25.482599
					CHANNELS 3 Xrotation Yrotation Zrotation
					End Site
					{
						OFFSET 0.000000 22.523010 0.000000
					}
				}
				JOINT newVegas:Right_Collar
				{
					OFFSET -18.625099 8.655792 8.828100
					CHANNELS 3 Xrotation Yrotation Zrotation
					JOINT newVegas:Right_Collar1
					{
						OFFSET -14.783401 10.539993 -1.259500
						CHANNELS 3 Xrotation Yrotation Zrotation
						End Site
						{
							OFFSET 0.000000 18.199631 0.000000
						}
					}
				}
			}
		}
		JOINT newVegas:Belly
		{
			OFFSET 0.000000 -6.540398 9.014299
			CHANNELS 3 Xrotation Yrotation Zrotation
			End Site
			{
				OFFSET 0.000000 11.566666 0.000000
			}
		}
	}
	JOINT newVegas:ElvisFacialAnim_Joint
	{
		OFFSET 1.000000 -95.330101 -8.825800
		CHANNELS 3 Xrotation Yrotation Zrotation
		End Site
		{
			OFFSET 0.000000 35.315800 0.000000
		}
	}
}
MOTION
Frames: 4
Frame Time: 0.016667
0.715569 92.175552 6.311000 -5.343727 -7.737362 6.037368 -0.000000 0.000000 -0.000000 -29.900680 6.595690 10.641346 17.150713 9.027015 0.834747 36.875409 9.416383 2.633541 0.000000 -0.000000 -0.000002 0.000001 -0.000000 0.000001 -10.292262 -10.404921 18.674355 24.737060 -11.922389 -1.340414 -14.328801 -12.160987 -25.126367 -0.000000 0.000001 0.000000 0.000000 -0.000000 -0.000000 0.572643 1.000342 -3.240040 0.947294 2.037201 -4.377106 0.968934 2.043659 -4.365420 1.163140 0.430039 1.609102 1.163144 0.430039 1.609102 -0.000000 0.000000 0.000000 1.163209 0.430039 1.609103 1.163133 0.430040 1.609103 -0.000000 0.000000 -0.000000 -0.000000 0.000000 0.000000 1.058071 -0.340529 -4.891288 -16.372112 12.814411 -32.934021 0.000012 -24.507077 0.000009 42.987595 -10.562000 -4.600052 -1.540043 3.690172 6.142332 3.946760 7.971411 0.752851 0.000003 -0.000001 -0.000004 -0.000002 -0.000002 -0.000009 0.000003 -0.000003 -0.000004 0.000000 0.000000 -0.000002 -0.000001 -0.001928 0.015971 0.000003 0.001917 -0.015984 -0.000002 -0.000003 -0.000002 -0.000006 0.000003 -0.000003 0.000003 -0.000007 -0.000009 -0.000000 -0.000002 0.000001 -0.018086 4.054243 0.511059 -0.018087 -4.054247 -0.511062 0.000001 0.000002 -0.000004 0.000000 0.000003 0.000001 0.000000 0.000003 0.000001 -0.000000 0.000003 0.000001 0.000003 -0.000002 -0.000001 0.000003 -0.000002 -0.000002 0.000003 -0.000002 -0.000001 0.000002 -0.000001 -0.000001 0.199127 -5.464830 5.846318 -40.201209 28.677458 7.199772 -0.000002 4.457085 0.000002 36.569031 21.327735 -11.047051 -1.908782 1.147429 -8.502724 4.645035 -8.656803 -0.231326 -0.000001 0.000000 0.000001 0.007127 0.315402 -2.588945 0.000001 0.000002 0.000047 0.000002 0.000001 0.000000 0.007132 0.315405 -2.588951 -0.000001 0.000001 0.000013 -0.000001 -0.000001 -0.000001 0.007123 0.315397 -2.588942 -0.000002 0.000004 0.000147 -0.000002 -0.000001 -0.000001 0.007134 0.315400 -2.588946 0.000000 0.000013 0.000012 -0.000000 0.000002 -0.000000 0.000002 -0.000001 -0.000002 -0.000001 -0.000001 -0.000002 0.000002 -0.000001 -0.000002 -0.000002 0.000003 -0.000000 -0.000002 0.000004 -0.000000 -0.000002 0.000003 -0.000000 -0.000002 0.000004 -0.000000 -0.000000 -0.000000 0.000000 -0.000000 -0.000000 0.000000 -0.000000 -0.000000 0.000000 -0.000000 -0.000000 0.000000 -0.000000 -0.000000 0.000000 -0.000000 -0.000000 0.000000 -0.000000 -0.000000 0.000000 0.000000 -0.000000 -0.000000 -0.000000 0.000000 -0.000000 
0.290559 92.321518 7.365714 -5.494855 -10.633766 6.553825 0.000000 -0.000000 -0.000001 -31.159238 6.629111 9.498269 17.356629 9.000814 0.824530 37.603811 7.957381 -0.250872 0.000000 0.000001 -0.000002 -0.000001 -0.000001 -0.000001 -9.647763 -10.232359 17.742789 26.908119 -11.840579 -1.234435 -15.618945 -10.728274 -23.391526 -0.000000 0.000001 -0.000000 0.000000 -0.000001 -0.000001 0.701703 1.182508 -3.497838 1.150022 2.492869 -4.561967 1.175537 2.502168 -4.546987 1.101812 0.498605 1.559083 1.101815 0.498604 1.559085 0.000000 0.000000 0.000000 1.102016 0.498606 1.559082 1.101661 0.498606 1.559085 0.000000 0.000000 -0.000000 0.000000 0.000000 0.000000 0.919752 0.306316 -3.868007 -17.993288 11.628147 -29.784133 -0.000008 -26.012419 -0.000004 42.448827 -8.511019 -6.736295 -1.540040 3.690177 6.142329 3.946759 7.971417 0.752851 0.000003 0.000003 -0.000003 0.000004 -0.000005 -0.000013 0.000004 -0.000001 -0.000002 -0.000001 0.000000 0.000001 0.000003 -0.001930 0.015971 0.000005 0.001920 -0.015986 0.000000 -0.000002 -0.000005 0.000001 -0.000000 -0.000013 0.000004 -0.000011 -0.000007 0.000002 -0.000002 0.000002 -0.018081 4.054245 0.511056 -0.018091 -4.054242 -0.511063 0.000001 0.000002 -0.000006 0.000001 -0.000001 0.000001 0.000001 -0.000001 0.000001 0.000001 -0.000001 0.000001 -0.000000 0.000001 -0.000001 -0.000001 0.000001 -0.000003 -0.000000 0.000001 -0.000001 -0.000002 0.000000 -0.000001 0.206929 -5.347462 5.805464 -41.452398 31.404103 7.845452 0.000022 4.254776 -0.000000 36.426649 17.698531 -11.018024 -1.940989 0.213044 -8.122634 4.645032 -8.656807 -0.231326 0.000000 0.000001 0.000001 0.004592 0.253156 -2.077736 -0.000001 0.000001 0.000048 -0.000001 0.000002 0.000002 0.004589 0.253151 -2.077725 -0.000002 0.000002 0.000013 0.000000 0.000002 0.000003 0.004589 0.253160 -2.077739 0.000002 0.000003 0.000146 -0.000000 0.000004 0.000005 0.004581 0.253155 -2.077726 0.000000 0.000011 0.000008 0.000000 0.000003 -0.000001 0.000001 -0.000001 0.000001 0.000003 -0.000003 -0.000001 0.000001 -0.000001 0.000001 0.000002 0.000003 -0.000001 0.000002 0.000004 -0.000001 0.000002 0.000003 -0.000001 0.000002 0.000004 -0.000001 -0.000000 0.000001 0.000000 -0.000000 0.000001 0.000000 -0.000000 0.000001 0.000000 -0.000000 0.000001 0.000000 -0.000000 0.000001 0.000000 -0.000000 0.000001 0.000000 -0.000000 0.000001 0.000000 -0.000000 -0.000000 -0.000000 0.000000 -0.000000 -0.000001 
-0.163314 92.445053 8.404839 -5.649715 -13.531300 7.005344 -0.000000 0.000001 -0.000001 -32.235641 6.800117 8.210003 17.461059 9.037775 0.829983 38.453057 6.738230 -3.044535 0.000001 0.000001 -0.000000 -0.000001 -0.000001 0.000000 -9.034662 -10.072833 16.743242 29.174108 -11.738834 -1.117483 -16.952946 -9.374036 -21.567851 0.000000 0.000002 0.000000 0.000002 0.000000 0.000002 0.830206 1.370813 -3.732930 1.350766 2.961713 -4.730877 1.379869 2.974014 -4.712208 1.044993 0.564920 1.508426 1.044998 0.564922 1.508425 0.000000 -0.000000 0.000000 1.045066 0.564918 1.508425 1.044991 0.564921 1.508426 0.000000 0.000000 -0.000000 0.000000 -0.000000 0.000000 0.757069 0.956894 -2.838908 -19.446295 10.332251 -26.706629 -0.000005 -27.039604 -0.000017 42.214138 -6.536497 -9.326118 -1.540042 3.690176 6.142339 3.946758 7.971413 0.752853 0.000001 -0.000000 -0.000003 -0.000003 -0.000001 -0.000005 0.000002 -0.000006 -0.000003 -0.000001 0.000004 -0.000002 -0.000001 -0.001929 0.015977 0.000003 0.001922 -0.015988 0.000001 0.000001 0.000001 -0.000004 0.000002 -0.000007 -0.000000 -0.000012 -0.000007 0.000001 0.000001 -0.000002 -0.018088 4.054246 0.511059 -0.018092 -4.054249 -0.511056 0.000001 -0.000002 -0.000002 -0.000000 -0.000001 0.000001 -0.000000 -0.000001 0.000001 -0.000000 -0.000000 0.000001 -0.000001 0.000002 -0.000003 -0.000001 0.000002 -0.000003 -0.000001 0.000002 -0.000003 -0.000001 0.000002 -0.000003 0.212557 -5.231000 5.754128 -42.739502 34.146513 8.565999 -0.000010 4.063299 -0.000001 36.307913 13.991128 -11.057211 -1.951452 -0.743612 -7.734743 4.645035 -8.656804 -0.231325 0.000001 -0.000001 -0.000002 0.002569 0.189408 -1.554387 -0.000002 0.000005 0.000047 0.000001 0.000000 -0.000001 0.002570 0.189407 -1.554389 -0.000004 -0.000002 0.000007 -0.000000 -0.000001 0.000000 0.002569 0.189412 -1.554390 -0.000001 0.000008 0.000142 -0.000000 -0.000001 -0.000000 0.002568 0.189415 -1.554386 -0.000001 0.000010 0.000006 -0.000000 0.000003 -0.000002 -0.000001 0.000000 0.000001 0.000001 -0.000000 0.000000 -0.000001 -0.000000 0.000001 -0.000003 0.000001 -0.000002 -0.000003 0.000002 -0.000002 -0.000003 0.000001 -0.000002 -0.000003 0.000002 -0.000002 0.000000 -0.000000 0.000001 0.000000 -0.000000 0.000001 0.000000 -0.000000 0.000001 0.000000 -0.000000 0.000001 0.000000 -0.000000 0.000001 0.000000 -0.000000 0.000001 0.000000 -0.000000 0.000001 0.000000 0.000001 -0.000000 -0.000000 0.000001 -0.000001 
-0.655660 92.547440 9.417788 -5.819889 -16.374352 7.367267 0.000000 -0.000001 0.000001 -33.189767 7.097688 6.778931 17.483677 9.139160 0.853677 39.496764 5.870454 -5.699767 0.000000 0.000000 0.000000 -0.000000 0.000000 0.000000 -8.380638 -9.925100 15.733885 31.370471 -11.611175 -1.002665 -18.241422 -8.136585 -19.717119 0.000000 0.000000 0.000000 0.000001 0.000002 -0.000002 0.959150 1.572706 -3.936978 1.552686 3.454293 -4.875777 1.585065 3.469683 -4.853021 0.997661 0.625156 1.457885 0.997667 0.625156 1.457886 -0.000000 0.000000 0.000000 0.997659 0.625173 1.457881 0.997724 0.625110 1.457894 -0.000000 -0.000000 0.000000 -0.000000 0.000000 -0.000000 0.574223 1.603290 -1.815877 -20.697785 9.000522 -23.723489 -0.000010 -27.489794 -0.000003 42.273014 -4.912383 -12.211367 -1.540041 3.690176 6.142337 3.946758 7.971414 0.752855 0.000005 0.000000 0.000001 0.000001 -0.000002 -0.000007 0.000004 -0.000002 -0.000005 0.000001 0.000002 -0.000001 0.000003 -0.001928 0.015975 0.000002 0.001923 -0.015988 0.000000 0.000005 0.000001 -0.000001 0.000000 -0.000007 0.000001 -0.000009 -0.000007 -0.000000 -0.000002 -0.000001 -0.018080 4.054241 0.511057 -0.018090 -4.054242 -0.511064 -0.000002 0.000000 -0.000003 0.000000 0.000004 0.000003 0.000000 0.000004 0.000003 -0.000001 0.000004 0.000003 -0.000001 0.000002 -0.000000 -0.000001 0.000002 -0.000000 -0.000001 0.000002 -0.000000 -0.000001 0.000002 -0.000000 0.215349 -5.122707 5.672776 -43.983983 36.850155 9.221140 0.000004 3.892980 0.000002 35.960639 10.271113 -10.808902 -1.940595 -1.643852 -7.370413 4.645034 -8.656810 -0.231322 0.000002 -0.000003 0.000001 0.001195 0.129403 -1.061773 -0.000001 0.000004 0.000044 0.000001 -0.000001 0.000004 0.001193 0.129391 -1.061763 -0.000002 0.000002 0.000014 -0.000000 0.000001 -0.000000 0.001196 0.129388 -1.061772 -0.000002 0.000004 0.000146 0.000001 -0.000003 0.000002 0.001194 0.129390 -1.061774 0.000004 0.000003 0.000005 0.000001 -0.000002 0.000002 0.000002 -0.000001 0.000002 -0.000001 -0.000000 -0.000001 0.000002 -0.000001 0.000000 -0.000000 -0.000001 0.000001 -0.000000 0.000000 0.000000 -0.000000 -0.000001 0.000001 -0.000000 -0.000000 0.000001 0.000000 0.000001 0.000001 0.000000 0.000001 0.000001 0.000000 0.000001 0.000001 0.000000 0.000001 0.000001 0.000000 0.000001 0.000001 0.000000 0.000001 0.000001 0.000000 0.000001 0.000001 0.000001 -0.000002 -0.000000 0.000000 -0.000001 0.000001 
